<svg xmlns="http://www.w3.org/2000/svg" viewBox="0 0 478.43 65.26"><g data-name="Layer 2"><path d="M478.43 65.26V21.55c-17.11 1.11-17.21-6.82-17-9.74.08-1.25-.66-2.6-3.85-2.71-2.94-.1-4.94.92-4.69 2.71.61 4.39-1.69 8.71-12.27 8.51-3.7-.07-9.44-.83-12.63-5.84a5.36 5.36 0 00-5-2.81 4.24 4.24 0 00-4.19 2.71c-1 2.5-2.62 5.53-7.33 5.2-2.51-.17-3.08-1.21-3.45-2a4.26 4.26 0 00-4.5-2.66c-3.84.22-3.46 2.74-7.71 3.13-5.46.49-7.56-6.08-9.34-7.8S382.7 8 379.94 8a7.66 7.66 0 00-5.47 2.14c-3.81 4-4.51 7.71-11.15 7.71-8.32 0-7.12-5.67-8.85-9.58-.89-2-3.56-3.22-6.78-3.07-3.07.15-5.08 1.42-5.45 3.18-2 9.75-7.6 12-14.79 12.05-5.45 0-10-2.46-12.06-5.85-1.07-1.74-3.1-4.89-7.25-5-3.77-.08-4.85 3-7.47 1.88s-1.77-6.53-1.56-8.26c.23-2-1.2-3.2-3.8-3.2-1.7 0-4 .58-3.63 3.38.44 3.49-.81 14.23-8.24 14.23s-4.45-6.44-11.07-6.44c-6.24 0-6.1 9.36-14.16 9.36-3.85 0-4.76-3.19-5.49-7.94-.45-2.89-.34-5.65-.72-7.19-.25-1-1.44-2.35-4.7-2.32-2.86 0-4.12 1-4.33 2.23-.3 1.64-.37 9.77-5.27 10.2-5.29.49-5.41-3.51-10.91-3.51-5.26 0-6.15 3.48-12.13 3.48-2.44 0-5.92-.29-8.11-4.16-.53-.94-1.47-2-3.92-2a3.71 3.71 0 00-3.55 1.92c-.94 1.53-3.45 7-7.54 7-2.79 0-3.9-1.42-5.72-4a5.71 5.71 0 00-4.69-2.92 5 5 0 00-4.78 2.85c-1 2.16-1.84 6.43-5.61 6.72-8.41.64-8.73-11.51-9.31-15.11-.32-2-2-3.06-5.56-3.06-2.77 0-4.55.82-4.77 3-.8 7.79-4 15.06-10 15.06-5.34 0-8.15-4.29-11.51-8.56a5.6 5.6 0 00-4.57-2c-2.59 0-3.84 1.38-5.11 2.87-2.54 3-4.93 6.54-8.47 6.54-4.38 0-5.59-2.61-7.31-4.57a6.64 6.64 0 00-5.55-2.51c-2.55 0-3.62.86-5.15 2.54-1.78 1.94-4 4.57-7.78 4.57a7.25 7.25 0 01-5.55-2.36c-1.54-1.3-3.1-2.54-5.7-2.39-3.63.19-5 2.85-9.77 3.13-6.25.35-8.47-5.9-9.84-9.66-.5-1.36-2.15-2.6-5.34-2.51S45.38 7.43 45 8.54c-2 6.46-3.5 11.3-9.41 12.09-6.72.9-9.21-1.83-12.43-6.33-1.06-1.48-4.18-2.58-7.32-2.24a4.93 4.93 0 00-4.16 2.46c-2.08 3.3-3.14 6.24-11.68 7v43.74z" fill="#FFFFFF" data-name="Ñëîé 1"/></g></svg>