<svg xmlns="http://www.w3.org/2000/svg" viewBox="0 0 478.43 68.37"><defs><style>.cls-1{fill:#ffffff}</style></defs><g id="Layer_2" data-name="Layer 2"><g id="Ñëîé_1" data-name="Ñëîé 1"><path class="cls-1" d="M478.43 68.37V9.76c-.19.11-.27.32-.63.44-.79.52-3.07.35-4.21.2 2.57.24-.2.82-1.29 1.11-1.54-.41-4.12-.3-4.77-.89a5.33 5.33 0 01-2.37.16v-.3c-1.95.21.6.31.07.6-1.4.06-3.46-.62-5.72-.64a30.89 30.89 0 005.85-.63c-4-.63 1-1.49 2-2.23-3.36.27-4.7.79-7.48 1.21-3.18-.69.6-2.16 1.44-2.23-3.06.35-6.35 1.22-8 1.51 2.41-1.1 2.09-1.48 4.24-2.36-2.3-.74-2.92.07-4.13.48.68-.09 1.73-.14 1.94.1-2.84-.17-2.63 1.63-4.24 2.36-1.33-.92-4.55-.33-5-1.18-2.51.2-1.92-.22-2.25-.59-1 .74-.06 1.87-4.27 2.06.92-1.79-3.7-.25-3.33-1.9-2 .06-3 1-5 .71-2.1-1 3.42-2.14 4.58-1.83 2.82 0-.48.74.65.75l2.77-.43c-1.45-.38-4.33-.86-3.86-1.6-2.79.28 2.09.84-1 1.19l-1.75-.46c-3.06.35.43 1.28-3.51 1.4 2.74-.73-4.24-.11-3.82-1.31-.39 1.5-7 0-8 1.22l2 .39-.34-.68c2.25 0 4.19-.34 6.48 0-1.92.51.43 1.28-1.77 1.71-4.14.8-1-.83-1.51-.83l-3.36.73 2.06.69a73.77 73.77 0 01-9.31 0c-4.91-1 .75-.81-2.74-1.74-1.67.29-1.33.67-3.61.5 1.17.46 2.24-.13 3.09 0 1 1-4.18.34-4.09 1.24-.89-.38-.65-.76.16-1.12-3.93.27-7.62 0-8.89-1.19l-1.84 1.02c-6.56-.58 4.68-.94-.77-1.81-2.28-.16-4.55-.18-5.62.26l2 .09c-1.62.59-1.57 1-4.07 1.39-1.71-.16-.66-.9-2.85-.32-4.13-.63-2.52-1.41-1.19-2.22-1.76 0-4 0-4.4.44 0-.27.38-.78 1.41-1.06 3.38 1.27 1.57-1.16 2.84.14l.78.05.22-.19c-1.49-.29-1.43-.68-1-1l-1.5.51-.89-1.12c-1.32-.17-2.36.75-3 .09-1.85-1 3.15-1.38-1.7-1.87-5.21-.45-5.16 1.31-8.69 1 .32.33 1.21.32 2.32.4-1.24.44.74.89-1.27 1.21-1-1-4.73-1-7.61-1.08.83-.5-.93-1.06 0-1.34a9.18 9.18 0 00-3.54.63c5.74.87-5.79.66-1.39 1.73-4.55-.17-5.29-1.06-8-1.64.23-.28 5.34-.46 1.36-1-4.8.88.61 1.42-3.18 2.53l2.86.43c.18 1.23-5.1.17-5.9.42-1.75-.36 2.57-.28.94-1.16-2.65-.34-4.13.4-5.77-.1a17 17 0 012.7-1.19c-6.31-.14.48-1-4.27-1.6-1.55.12-.69.87-3.13.62 1.3.93 1.08 1.22 5.06 1.35-1.6 1.27-5.2-.44-8.11.27a10.79 10.79 0 003.11.14c.16 1.09 1 1.29-1.33 2.24 2.64-.22 3.94-1.36 7.6-1 .85 1.13-4.68.74-5 2.17-2 .68-6.36 0-8.32-.63-3.74.79-8.17.7-11.12 1.92-2.54-.48-9.23.57-14.09.07-.65-.66-6-.58-2.84-1.2-.46.2-4.56.21-3.58.82.45-.2.89 0 1.77 0l-.9.78c-2.32-.4-5.13.55-7.33 0-.64-.65 4.33-.3 2.92-1.09-2.37 1.13-11.35 1.41-14.11.83-1.88-.21-1.95-1.21-2.73-1.34h-3.21c-.32-.33-.31-.71-.85-1.13a9.81 9.81 0 00-3.67.2c-4.07-.75-1.72-1.5.53-2.11l2.3.4c1.79-.41 4.23-.16 2.92-1.09-1.21.06-1.23.44-1.68.64l-1.31-.55c-1.45.35-5.34.46-5 1.17-2.74-.58-6.08 0-8.5-.69 1.65.5-.58.73-.16 1.29l3 .29c-2.44.14-6 .57-8.2 0 .34-.43.46-.58-.63-1 1.53.65-4.35.68-.94 1.54a17.9 17.9 0 014.22-.16c1 1-1.7 1-3.27 1.53-1.89.17-5.56.37-8.12.64-1.54-.26-1.84-1.35-4.63-.78 3.29 1-3.48 1.43-4.52 2.35-2.53-.49-4.34.68-6.31-.14 1.12-.31 5.11-.18 6.24-.86.25-.67-.61-1.8 3.4-2-4.69-.47-2.88.5-5.11.72h1.64c-.78.25.54.8-.91.78-5.52-.4-6.39-1.15-10-2.09.76.51-1 .92-1.92.93-3.52-.71.27-1.43-1.79-2.5-1.35.59-3.79.34-3 .86-1.44 0-.65-.28-1.64-.5a7.55 7.55 0 01-4.13.77c.23-.29.58-.72 2.45-.51-2.09-.3-2.72-1.34-1.7-1.88l3.41.47c1.69-.64-3.19-.38-3-1 1.56-.12 2.65.34 3.66.18-.87-.75-4-.13-5.76-.1-2.77-.2-1.64-.88-1.62-1.26-4.92 1 5.27 1.44.69 2.42-1.8.79-6 .56-9 .66 2.4 1-.49 1.34-3.61 1.58 4 .12.86 1.12 5.64.63v.76c-2-.07-4.31-.46-6.31-.53.45-.19 0-.38.69-.49l-6 .19.68-.49c-3.65-.18-8.06-.88-10.29-.65 1.77 0 3.19.76 1.3.93a16.28 16.28 0 01-4.78.5c-.75-.89-7.07-1-2.94-1.81-5.22.31-3.34.52-8.35.93l3.34-.14c.3.71-2.62 1.8.47 2.32-3.78.35-1.6 1.65-6.6 1.67-1.95-.47.82-1.39 3.64-1.49-1.4-.1-2.61-.51-4.14-.07-1-.6 2.8-1 2.7-1.18-2.55-.11 0 .38-2.45.51-4.35.68-2.51-1.25-6.63-.85.89 0 2.43.25 1.31.55-5.42-.16-3.12.62-7.12.87-2.07-1.07-.93-2.13-4.46-2.46l2 .06a11.83 11.83 0 00-4.3-.83c-7.56.68-13.93 2.06-21.71 2.65l2.68-.33c.88.37-2.35.37-2.36.75l-1.64-.5c-.58.72 3.74.8 2.61 1.48a2.65 2.65 0 00-1.09-.02l1.55.26c-3.54-.33-6.58.91-9.09-.34 7 0 1.4-2.12 8.28-2.32-3.65.2-.52-.8-.84-1.13-1.88-.21-1 .54-3.12.24.13-.53 4.8-.88 2.82-1.33-.36.82-2.23.6-3.25 1.14-1.54-.26.13-.52-.53-.8a13 13 0 01-2.22.23l.67-.49c-4.29-.84-1.46.73-6.43.38-.25.67 1.31.55 3.42.47.83 1.52-6.7 1.44-6.54 3.05-4.77.13 1.35-.59-2.62-1.1-2.07-1.06 3.14-1 4.27-1.68l-4.08-.75c1.6-1.26 4.13-.78 5-1.94-3.1-.14-2.77.19-6 .57 5 1.12-2.35.75.37 2.09-2.31-.39-1.53-.64-5-.73 2.22-.23-.31-.71-5-.74-1.59.88 4.5 1.31-1.18 1.83-1.21 0-.92-.37-.21-.34-3.79-.52.77 1.11-1.79 1.51-1.75.07-2.32-.31-1.57-.51-2.71.43-1.36 1.09-3.13 1.25l.77.13c-.78.25 1.05 1.6-2.71 1.57-2.75-.08-1.81-.57-1.82-.88a13.3 13.3 0 01-5.19-.41c.12.19-.07.36-.72.35-3.67.2-2-.83-3.29-1-5.09-.58.38 1.71-5.34 1.61l6.64.47c-.35.44-.6 1.11.85 1.13.23-.67 2.7-1.18 4.91-1 .52.8-6.12.71-2.5 1.65-1.32-.17-3.22 0-4.87-.11 1.8-.79-5.32-.31-2.29-1.16-7.32 0-8.3-.59-15.08-.16a18.08 18.08 0 018.54-1.24l.21.47c4.45-.45-3.31-.62-2.4-1.39-5.57 1.15-11.82-.92-18.48-.63 1.09.46-.26.67-.6 1.1 2.66 0 2.22-.22 4.09.37-.46.58-2 .32-2.91.71-.79.63 2 .07 2.87.44a12.21 12.21 0 00-3.91.86C37.76 9.15 38 8.86 37 8.26a100.88 100.88 0 00-10.54 0c4.47-.83 11.89-.6 11.39-2.17-3.55.05-6.24.86-10.56.78l.23-.29c-3.1-.15 0 .38-.79.63-3.57.44-4.28-1.6-6.86-.57l3.54.36c-2.79.57.78.14 0 1.15-4.9.64-13.09-.09-20 .49a14.41 14.41 0 005 .73c-1.3 1.29-2.24 1.17-1.44 2.19-2.47.07-5 .33-6.29.34.36-.43 1.77 0 2.35-.36a21.89 21.89 0 00-3 .14v.88H0v55.81zm-365-56.48l-.38.49-2.06.1a11.79 11.79 0 002.39-.59zm-16.53-.67c-1.65 1.07 1.5.65 2.13 1.32H93c.2-.28-.17-.54-1.5-.71a17.23 17.23 0 005.4-.61zm-71.07-.32c-.72-1.65 5.79-.66 6.16-1.85.76.51 1.87.59 4 .51-.36.44.73.89-.94 1.16a21.86 21.86 0 01-3.75-.42c.57 1.64 5.34.65 8.77 1.08-.47-.14-.58-.3.41-.51 2.09.31 6.74.71 5.28 1.45h2.27c.18.07.28.14.22.2h-3a3.23 3.23 0 01-1.69-.73 23.94 23.94 0 00-6.29.73h-5.05c.78-.34 3.61-.12 3.48-.8a32.78 32.78 0 00-7.47.5c-.41-.57 2.11-.07.48-.58l-3.7.2h-.21c-2.86-.43.93-.77-2.84-1.19 1.11.06 3.45-.31 3.87.25zm-11 1c-.28.09 0 .3.24.54l-.83.05-.62-.56c.38-.05.84-.06 1.21-.05zM8 11.75l2 .09a10.79 10.79 0 00-1.51.25c-.65-.09-.72-.26-.49-.34z"/><path class="cls-1" d="M112.86 12.54h-.49l.63-.16zM361.05.75a9.84 9.84 0 00-2.36.17c.81-.05 1.64-.09 2.42-.15zM331.84 5.47l-1.91-.8L329 5c-.5.62 1.83.63 2.84.47zM363.5.29a7.65 7.65 0 01-2.39.48l1 .44c2.72.02 1.61-.57 1.39-.92zM327 4.67c-.42-.57 2.39-1.52.19-2-8-.27-3.74 2.1-11.93 1.74l4.07.75c-.07-1 2.94-1.47 6.15-1.47l.87.75a16.29 16.29 0 01-1.83.5c1.17.06 1.03-.52 2.48-.27z"/></g></g></svg>