<svg xmlns="http://www.w3.org/2000/svg" viewBox="0 0 479.3 64.37"><defs><style>.cls-1{fill:#ffffff}</style></defs><g id="Layer_2" data-name="Layer 2"><g id="Ñëîé_1" data-name="Ñëîé 1"><path class="cls-1" d="M.82 19c-.28-.1-.54-.16-.82-.2l.82.26 5.5 1.72H4.5c-1.17-.27-2.37-.54-3.68-.78v44.37H479.3l-.05-43.59H479c-1-1.57-2-3.14-3-4.72-1.72-2.71-3.69-5.41-5.16-8.14-.88-1.63-1-3.32-3.51-4.74-.34-.19-.39-.46-.61-.69-.79-.83-1.6-1.66-2.4-2.49l-.77.13c.49.5 1 1 1.45 1.5s1 .82.77 1.11c-1 1.15.34 2.11 1.16 3.12.48.58.48 1-1.3 1.38l-4-3.33c-1.78.23-2.88 0-3.51-.78A5.68 5.68 0 00456.38 2a15.29 15.29 0 00-2.31-.39 10.28 10.28 0 011.79 1.1c1.51 1.92 2.95 3.84 4.35 5.78.12.16-.2.38-.39.68-4.38-2.65-5.42-5.74-8.82-8.43 1.06.81.8 1.67-.19 2.32a1.78 1.78 0 00-.89 1.94l-1.79-.67c-.2.31-.35.53-.5.75l-3.34-.44-1.15-1.54.32-.07 1.44.86c.59-1.14-2-1.3-2.86-1.93a24.48 24.48 0 00-3.5-1.79c-.77.21-1.63.43-.87 1.07a5.4 5.4 0 011 1.52L433.84.92l-2.84.21c.22.69.42 1.35.63 2h-.62L428.85.54l-.46.07c-.38.92-.77 1.84-1.18 2.82l-1.68-.37.83-.89-2.36.58-1.54-1.58-.42.06 2.13 4.63-.68.08-2.24-2.82c-2.64 1.33 1.31 2.63-.25 3.88l-1.65-.23-.05.06 1.4 2c-2.05-.77-2.15-.94-1.4-2v-.08h.1c-.72-.44-1.39-.88-2.15-1.31-.55-.3-1.21-.57-1.82-.86l-.77.17 3.06 7.84-.65.1c-.47-.46-1-.92-1.38-1.39-.65-.8-1.24-1.6-1.84-2.41.12.57.46 1.18 0 1.65-.85.95.28 1.72.67 2.56a3.27 3.27 0 00.76.79h-1.94l-3.85 3.7-.78-.08c.82-2.2 3.35-4.32 2.82-6.93l-7 4.93-.93-.3-1.41.93-.64-.08 1.6-3-.66-.08-4.84 3.53.39-3h-.62l-2.18 2.17h-.74l.71-4-2.92-.38-5 5.27c-.2 0-.38 0-.56-.05l3.04-4.52-.7-.07-3.38 3.35c-.29-1.46 2.34-2.73 1.33-4.49-.69.61-1.12 1-1.46 1.3s-.32.9-2.17.84a1.17 1.17 0 01-.38-1.19h.2-.19c.28-1.16 1.8-2.33-.27-3.47-.07.66.39 1.39-1.47 1.77a7.15 7.15 0 00-4.53 2.42c-6.83 1-13.29 2.33-20.41 3l5.59-1.46-.18-.13-13.91 2.18c2.2-1.11 5.39-1.41 8.27-1.95s5.7-1.14 8.48-1.78c-7.08.21-12.82 2.21-19.86 2.53a111.2 111.2 0 0118.86-3.58 67.94 67.94 0 008.69-1.61c-1.78.28-3.56.55-5.33.84a13.82 13.82 0 01-3.93.25 13.57 13.57 0 00-3.26.28c-4.37.69-8.68 1.45-13.07 2.12-3.82.58-7.72 1.08-12.32 1.71 2.84-1.57 6.45-2 9.55-2.74-.56 0-1.15.06-1.68.14-7.17 1.06-14.11 2.38-21.52 3.21-3.4.39-6.57 1.12-9.82 1.74 2.47-.59 4.9-1.22 7.47-1.72 6.36-1.26 12.8-2.46 19.22-3.67 2-.37 4.08-.7 6-1.14-6.16.81-12.49 1.46-18.45 2.47-8.62 1.47-17 3.21-25.45 4.83-1.21.23-2.43.45-3.64.69a43.76 43.76 0 00-5.25-.31c-2.56-.1-5.14-.11-7.72-.15V18l8.77-.21c-1.46-.64-3.84-.37-4.8-1.2l-3.88-.25c2.57-.42 5.56-.11 7.81-.95-3.11-.38-6.79.1-9.1-1.19-1.26.59-1.85.64-8.63.9-3.15.12-6.3.27-9.46.4 0-.1-.08-.21-.13-.31l13-1.3c-8.27-.57-16.38.26-24.61.39a14.64 14.64 0 014.91-.88 2.82 2.82 0 00-2.08-.43c-1.3.07-2.62.09-3.93.13h.08-.63.43a27.63 27.63 0 01-3.16.45c-5.74.25-11.48.46-17.23.66-6.94.24-13.69.92-20.51 1.47-9.28.74-18.52 1.6-27.86 2.19s-18.58.88-27.86 1.36c-4.05.21-8 .61-12.09.82-5.66.3-11.35.45-17 .73h-17.81l6.85-.37v-.12l-9.13.49h-52c-4.51-.81-9-1.63-13.54-2.42a9.26 9.26 0 00-2.71-.12 9.35 9.35 0 01-2.76 0c-1.22-.14-2.36-.39-3.55-.58-.5-.08-1.05-.11-1.58-.16l-.16.2c2.65.73 5.22 1.52 8 2.17 1.47.35 3 .65 4.6 1h-.84l-3.88-.7c-.62-.11-1.24-.23-1.87-.33-1.46-.23-3-.4-4.37-.68-2.15-.43-4.21-.93-6.2-1.38l-3.19.49c-4.17-1.18-8.46-2.15-12.98-2.95 4.09 1.28 8.29 2.49 12.56 3.64 2.46.66 5 1.26 7.57 1.82h-2.49L24 20.43c-4.61-1.07-9.09-2.22-13.64-3.33a4.25 4.25 0 00-1.07-.18 4.07 4.07 0 01-2.8-.18c-1.9-.43-3.76-.89-5.62-1.35V17c1.25.62 3.3.92 4 1.75.06.07.32.1.49.15l6.31 1.93H9.85C6.76 20.21 3.93 19.46.82 19zm368-2.63l5.68-1.18c-.6.71-1.19 1.43-1.75 2.15l-4.18.8c.15-.23.3-.45.44-.68a3.42 3.42 0 00.26-1.07zm54.09 4.46h-.35l.17-.3zm-4.46-.46a1.62 1.62 0 00.22.46H418l.41-.64c-.03.01-.02.07 0 .13zm-51.23.46h-.32c.11-.22.26-.44.39-.66l4-1-.6.82c-1.17.23-2.33.52-3.51.79zm5.18-3c-.26.34-.52.67-.77 1a27 27 0 00-3.76.42c.1-.14.18-.29.28-.43zm100.6-.75c.92 1.23 1.82 2.47 2.7 3.7h-1.34l-2.95-5.36a17.13 17.13 0 011.59 1.66zm-4.75-7.34l1.85 2.83-.45.06-1.88-2.83zm-48.81 5.19l2.09 3.55-.82 1c-.46-.81-.94-1.62-1.39-2.42-.68-1.2-1.13-2.42-1.69-3.64a4 4 0 011.79 1.51zm-2.1 1.83c.14.47.29.94.43 1.41l-3 2.61h-.2c-.1-.16-.21-.32-.31-.49 1.04-1.17 2.12-2.29 3.06-3.53zm-30.19-.1l-1.06 1.11h-.27l.57-.82zm-11-3.45l-.23.27c-.34.37-.63.74-.95 1.11L367.5 16c-.62.11-1.22.25-1.8.4a7.9 7.9 0 01-4.43 0zm-7.8 3.21c-.67.68-1.28 1.37-1.86 2.07l-4.19.8-.25-.65-11.34 1.78-.31-.28zm-64.73 2c2-.38 4-.68 6.08-1-4 .91-8 1.81-12.33 2.38 2.02-.43 4.06-.93 6.21-1.33zm-15.2 1.66l-2 .38c-.85-.06-1.7-.12-2.54-.2q2.24-.09 4.5-.13z"/><path class="cls-1" d="M241.67 12.43l9.27-.51c-11.14 0-22.11.47-33 1.19h4.48c0 .1.05.21.08.31-1 .09-2.11.14-3.12.27a17.31 17.31 0 00-1.72.41c5.47-.34 10.93-.66 16.5-.62 3.16 0 6.32-.14 9.48-.22l6.78-.16-8.67-.36c-.06-.14-.07-.23-.08-.31zM273.26 11.94l-10 .2c3.45.14 6.82.46 10-.2zM257.11 13.37h-.17.05zM262 12.66c-1.27.07-2 .05-2.58.15-.81.15-1.55.36-2.31.56 1.68.15 3.36.3 4.89-.71zM127 19.87l-7.32.39v.12L127 20zM216.73 14.14h.89-.24zM209.6 14.88l7.13-.74-7.3.39zM287.25 16.53H287h.05a.9.9 0 01.2 0zM287.25 16.53l6.12-.09a13.69 13.69 0 00-6.12.09zM474.76 1.09l-2.83-.26 3.81 4.77c-.85-1.55-2.74-2.92-.98-4.51zM413.65 8.66v.05l.17.21a1.18 1.18 0 010-.2zM412.86 6.37c-.56.81-.39 1.58.79 2.29 1.04-.83-.2-1.54-.79-2.29zM412.76 6.22v.07l.07.08v-.06zM412.76 6.22c-.37-.86-.75-1.71-1.12-2.57-.54.95-.23 1.81 1.12 2.57z"/></g></g></svg>