<svg xmlns="http://www.w3.org/2000/svg" viewBox="0 0 478.43 50.7"><defs><style>.cls-1{fill:#ffffff}</style></defs><g id="Layer_2" data-name="Layer 2"><g id="Ñëîé_1" data-name="Ñëîé 1"><path class="cls-1" d="M315.78 2.49c-1.74 0-3.46.18-5.2.26h-.34l7.58.07a9.69 9.69 0 00-2.04-.33zM327.92 3h-.19c-1.3.14-2.59.31-3.89.32l1.38.11-.65.13a31.79 31.79 0 005.35-.34 7.61 7.61 0 01-2-.22zM320.88 2.9h-.06a8.21 8.21 0 01-.78.29c.71.12 1.41.21 2.13.26a2.17 2.17 0 000-.25 9.87 9.87 0 01-1.29-.3zM327.8 2.94h.12c.52-.09 1-.18 1.55-.25a15.38 15.38 0 00-3.24-.09l1.5.33zM325.33 2.66h-1.08l.68.35zM306.49 2.75a14.35 14.35 0 00-5.65-.15c1.59.06 3.18.12 4.76.14zM308.05 3.29v.15l-2.28.24c2.73.07 5.45.09 8.1-.06a14 14 0 003.64-.45l-6.16-.11c-1.81 0-3.63 0-5.45-.06l-8.9-.1c-.62 0-1.25 0-1.87-.08l-4.06.09H291l2.84.06c-.2.29-.35.53-.55.81 3.43-.12 6.86-.31 10.29-.42 1.47-.04 2.97-.05 4.47-.07zM320.88 2.9l.19-.09h-.34l.07.06zM387 2h-9.5a.42.42 0 00.15 0l13.15.31v-.25A17 17 0 01387 2zM282.69 5.84l-9.05.16c1.87.08 3.73.16 5.6.2 1.35 0 2.71 0 4.19-.06a.72.72 0 00.36-.37h-1.14zM381.19 1.48c-1.57-.56-3.18-.12-4.78-.2s-3.47 0-5.21 0h-.98c3.66.09 7.32.17 10.97.2zM313.82 5.84c2 0 4 .06 6 0-1.68 0-3.35-.09-5-.11zM260.39 5.5l-6.61.11 6.62-.09zM323.62 7.12h2.43a13.12 13.12 0 01-2.18-.27 3 3 0 00-.25.27zM339 2.81l-1.9.08c-.6.31-.95.35-2.29.21l.06.23c2 0 4-.08 5.92-.12-.46 0-1.1-.1-2.12-.23a2.59 2.59 0 01.33-.17zM268.71 5.36L264.3 5l-.11.23 1.7.16v.06h2.47zM346.6 3.25c-.31 0-.63.07-.89.12l15.31.1c-1-.12-2-.21-3-.28-1.18 0-2.35.05-3.53.06-2.58.02-5.21.01-7.89 0zM344.5 2.58l-3.32.14a5 5 0 001.48.06 4.37 4.37 0 01-1.36.42l2.57-.05.44-.28a2.82 2.82 0 01.19-.29zM386.65 6.75a8.64 8.64 0 01-1.73 0c-2.84-.81-6.16-.52-9.17-.56h-4.27l.24.26-6.56.11 3.17-.38c-4.88 0-9.76 0-14.65-.09-5.58-.09-11.16 0-16.75 0l-3.71.24v.11l16.53.14.06.29c-1 0-2.05.11-3.07.12-5.26 0-10.53 0-15.79.1l-2.07.07h29.65l5-.09a4.59 4.59 0 012.82-.07c1.51 0 3 0 4.51-.11 2-.07 4 .15 5.95.19a7.25 7.25 0 013.6.07h21.91-.29c-5.13-.15-10.25-.28-15.38-.4zm-32.16-.34l-4.07.15v-.37h4.05zM263 5.76v.13l9.43.08-4.23-.27zM273.94 5.44H276v-.18h-5.06a1.74 1.74 0 01-.1-.19h-1.55l-.51.3zM304.29 5h2.36a7 7 0 00-1-.24h-8.58l-2.24.2c3.17.04 6.32.04 9.46.04zM312.94 5.1L313 5h-1.38c.36.06.77.08 1.15.12zM313 5.1zM403.85 1.87h4.06c1.36 0 2.66-.16 4-.21 3.49-.12 7-.19 10.74-.27-.72 0-1.45-.1-2.16-.11h-1.24c-1 0-1.94.11-2.91.12-1.59 0-3.19-.07-4.77 0-.69 0-1.47.43-2 .34a29 29 0 00-4.83-.19h-2.49l-3.66.12 3.18.12c.69.07 1.38.09 2.08.08zM398.21 1.74h-2.54l2.75.09-.18-.07zM283.6 5.36a4.69 4.69 0 00-.92-.53h-.4l.22.53zM244.22 5.6l6 .11h.08c-1.4-.39-1.92-.4-6.08-.11zM311.8 5.79l-8.64.15a30.9 30.9 0 008.64-.15z"/><path class="cls-1" d="M0 50.7h478.43V7.12h-2.64l2-.22c-1.37 0-2.74.13-4.11.15a24.78 24.78 0 00-3.56.07h-5.36c2.28-.1 4.58-.22 6.9-.38H471v-.18l6.47-.66c.11-.57 2.26-1.14-.15-1.74-.1 0 .15-.3.26-.46s.35-.22.32-.32a1.22 1.22 0 00-.46-.49q-6.86.29-13.73.52c-2.89.1-5.81.11-8.71.18-1.75 0-3.49.16-5.24.16-2.64 0-5.28-.05-8.07-.07 1.57-.64 3.45-.26 5.11-.35s3.47 0 5.2-.09c-9.59-.5-19 .26-28.64.39l-.81-.48-18 .18 3.75.5a8.29 8.29 0 01-3.65-.06A24.14 24.14 0 01397 4c1.88-.06 3.77-.07 5.62-.19a6.77 6.77 0 001.71-.58 51 51 0 01-7.73.21 1.85 1.85 0 00-.44.1l-1-.59a32.63 32.63 0 01-3.48.66c-1.12.09-2.55.26-3.27-.73l-.66.65-6.37-.74v.05h-.09c-.05.11-.09.29-.16.29-1.78.07-3.57.12-5.39.36l1.26.19a10.42 10.42 0 01-4.25-.29 13 13 0 00-1.68-.15c-1.95-.09-3.82.07-5.72.14l.12.23-1.38-.61c-.45.49-1.07 0-1.62 0l-4.44.1c1 .07 2 .16 3 .28l-15.31-.1c.26-.05.58-.08.89-.12h-2.87l.14-.09-2.57.05a3.14 3.14 0 01-.54 0c-2 0-3.94.09-5.92.12l-.06-.23-1.08-.01c1.21-.83 2.5-.41 3.77-.32l-.41.22 1.9-.08a3.78 3.78 0 012.21-.09l3.32-.14a2.82 2.82 0 00-.19.29l.58-.38c2.87.16 5.73-.17 8.66.38l.29-.81c.79 0 1.7 0 2.61.1a37 37 0 005.87.3 9.84 9.84 0 011.85-.17c.84.66 1.22-.09 1.8-.07a8 8 0 011 0c2.71.52 5.46-.31 8.3.4l-.35-.55h3.6v.14h-1.87v.22c1.25 0 2.49-.08 3.73-.06a2.86 2.86 0 01.9.29h.13c.28-.52 1.2-.39 1.95-.39 2.67 0 5.33.1 8 .08s5.06-.12 7.79-.38l-.74-.26-2.75-.09-6.14-.07v.18l2.9.21-1.6.06v.25L377.65 2a.42.42 0 01-.15 0h9.5c-.2 0-.41-.08-.61-.14a.38.38 0 00-.1 0h-.1l-11.09-.12h1a4.17 4.17 0 011 .23c-7.41-.05-14.82-.13-22.23-.14-4.92 0-9.84.07-14.77.09h-14c-2.35 0-4.69 0-7-.06-3.15 0-6.3-.09-9.46-.1-1.75 0-3.51 0-5.26.05h-9.8c-4.1 0-8.2.24-12.27.17-9.16-.16-18.27 0-27.4.25a7.11 7.11 0 00-1.58.15 89.88 89.88 0 0010.91.18 61 61 0 017.12.16 18.52 18.52 0 002.35.19c4.06-.46 8.06 0 12.18.05l.47-.6a2.39 2.39 0 01.64.06c.88.61 2.24.56 3.6.53l-.1.13.73.12 1 .2a5.37 5.37 0 01-.92.49c-2 .05-4 .08-6 0-7.9-.18-15.7.16-23.54.2-7.08 0-14.17 0-21.24.12-1.11 0-2.22.06-3.32.12l-10.13.16c-4.27-.36-8.5.51-12.41-.32l-1.41.48h-5.83c-1.75 0-3.49.19-5.24.27s-3.51.13-5.27.18c0 0-.12-.21-.18-.31-3.17.61-6.62.4-10 .46a8.16 8.16 0 01-1.45-.3 12.26 12.26 0 01-1.83.4c-1.42.1-3 0-4.31.18-1.2.15-2.22-.38-3.54 0a17.38 17.38 0 01-3.61.37c-1.25 0-2.55 0-3.76.07s-1-.75-2.33-.39a12.59 12.59 0 01-2.72.43 11.61 11.61 0 01-2.25-.37 6.55 6.55 0 01-4.85-.15c-1 1-2.89.36-4.39.42s-3.1.43-4.22-.3c-2.27.19-4.41.64-6.9.21a13.67 13.67 0 00-3.3.57L136 5.94l-3.52.69-.66-.81c-1.75.11-3.57.18-5.33.36a7.1 7.1 0 01-3.66-.27c-1 .19-1.85 1-3.19.11l-.44.51a73.11 73.11 0 00-11.94-.44l1.41.44a2.47 2.47 0 01-.52 0c-2.46-.74-5.45-.51-8.14-.61-3.44-.12-7 .22-10.48.28-2.19 0-4.4-.07-6.61-.12-1.48 0-3-.1-4.45-.09-4.08.06-8.16.21-12.24.21-3.74.02-7.5-.14-11.23-.2h-1.52l-2.08-.7 6.89-.3v-.17l-17.69.52c-.69-.66-2.31-.43-3.62-.38s-3.21-.41-4 .48l-2-.52a6 6 0 00.7.75l-1.71-.07-2.14-1.12.89-.22-.07-.27h-4.14l1.93 1.52L24 5.38c-.78 0-1.53-.15-2.29-.23h-.29v-.08l.86-.18a2 2 0 00-.43-.13c-3.38 0-6.75-.1-10.12-.07-1.65 0-3.28.28-4.93.3s-3.23-.13-4.72-.2L1.6 5.93l5.07.88c-2.15.41-4-.32-6.41-.34a3 3 0 001.43.65H0zM270.21 5h.65a1.74 1.74 0 00.1.19h5.06v.18h-2.06l-5.13-.11.51-.3zm42.79.1h-.19c-.38 0-.79-.06-1.15-.12L313 5v.12zm-7.32-.36a7 7 0 011 .24l-2.39.02h-9.46l2.24-.2zm-23 .09a4.69 4.69 0 01.92.53h-1.1l-.22-.53zm-28.9.81l6.61-.11zm12.11-.24l-1.7-.16.11-.24 4.41.35-.34.1h-2.47zm-15.62.31h-.08l-6-.11c4.19-.29 4.71-.28 6.08.11zm18 0l4.23.27-9.5-.09v-.13zm14.47.14v-.11h1.14a.72.72 0 01-.36.37c-1.48 0-2.84.08-4.19.06-1.87 0-3.73-.12-5.6-.2zm29.11 0a30.9 30.9 0 01-8.64.15zm3 0c1.68 0 3.35.06 5 .11h-6zm126.06-2.19a2.22 2.22 0 01-.57.21l-10.85.23a74.21 74.21 0 0111.42-.44zM422 3.44v.13l-3.54.43 3.59.18c-1.28.21-2.61.62-3.59-.18h-.12.07l-2.3-.42zm-11.52.86l4.86.06a1.67 1.67 0 00-.08.2h-4.79zm-25.37-.15v.11l-5.62-.06v-.11zm-7.88.18h-1.81L374 4.4h-1.28.08l.82-.16a8.1 8.1 0 013.58.09zm-8.87 1.78l-3.17.38 6.56-.11-.24-.26h4.27c3 0 6.33-.25 9.17.56a8.64 8.64 0 001.73 0c5.13.12 10.25.26 15.38.34h.29-21.94a7.25 7.25 0 00-3.6-.07c-2 0-3.92-.26-5.95-.19-1.5.06-3 .08-4.51.11a4.59 4.59 0 00-2.79.06l-5 .09h-29.64l2.08.03c5.26-.11 10.53-.07 15.79-.1 1 0 2.05-.08 3.07-.12l-.06-.29-16.54-.14v-.11l3.71-.24V6c5.59 0 11.17-.08 16.75 0 4.85.09 9.73.09 14.61.11zM291 2.92h-.24l-2.85-.5h3.41l-.28.46h.08l4.06-.09h-1.05v-.27c1.18 0 2.36-.06 3.54 0s2.15.08 3.22.12a14.35 14.35 0 015.65.15h4.09c1.74-.08 3.46-.24 5.2-.26a9.69 9.69 0 012 .35h1c.6 0 1.31-.51 1.87 0h.34a1.42 1.42 0 01.41-.14c.61-.1 1.25-.15 2.21-.26l.56.29h1.08l.19-.2.71.16a15.38 15.38 0 013.24.09 7.64 7.64 0 013.69.25c-1.08 0-2.16.19-3.24.21a31.79 31.79 0 01-5.35.34l.65-.13-1.38-.11a11.79 11.79 0 01-1.67-.1 2.17 2.17 0 010 .25c-.72 0-1.42-.14-2.13-.26a.68.68 0 01-.28 0h-2.21a14 14 0 01-3.64.45c-2.65.15-5.37.13-8.1.06l2.28-.24v-.25c-1.5 0-3 0-4.49.08-3.43.11-6.86.3-10.29.42.2-.28.35-.52.55-.81zm32.89 3.93a13.12 13.12 0 002.18.27h-2.43a3 3 0 01.23-.27z"/><path class="cls-1" d="M196.57 3.12l-22.95.58c1.97.35 20.44-.07 22.95-.58zM156.12 4.49a1.23 1.23 0 010-.2l-26.82.45v.2zM112.38 5.12h-.43 2.54l-.06-.1h-3.54a91.25 91.25 0 00-12.36.1zM189.22 4.31v-.13l-15.89.26v.14zM171.69 4.08V4L161 4.13v.13zM206.3 2.86l-8.12.36c2.82.42 5.43-.17 8.12-.36zM89.83 5l5.59.12c-1.8-.59-3.72-.18-5.59-.12zM350.42 6.56l4.07-.15v-.18h-4.05c0 .08-.01.21-.02.33zM29.73 3.1L32 2.6a7.28 7.28 0 003.39 1l9.39-.39-1.87-.41 16.92-.61V2l-5.37-.27v-.14l5.49-.32a2 2 0 00-.95-.22c-6.22.06-12.44.16-18.66.2-3.07 0-6.14 0-9.2-.09-1.93 0-3.86-.08-5.79-.13-1.24 0-1.59.21-1.39 1 2.41.3 4.69-.09 5.77 1.07zM35.36 3.58zM72.67 5.27h16.14v-.08l-17.06-.28a1.42 1.42 0 00.92.36zM103.84 3.32v-.13h-18v.13zM118 4h-10.27a2.82 2.82 0 00-.7.15 1.21 1.21 0 000 .14zM69.13 1.81c-1.38 0-2.75.07-4.13.05a17.93 17.93 0 00-4.08.07 35.62 35.62 0 008.21-.12zM74.47 4.55h4.68c1.55 0 2.85-.16 4.29-.25v-.15l-8.94.25a.77.77 0 01-.03.15zM61.58 1.33l7.66-.12a25.27 25.27 0 00-7.66.12zM35.41 3.91h.14zM45 4.42h-6.68a17.06 17.06 0 01-2.74-.47v.54A54.15 54.15 0 0045 4.42zM163.09 5.06h8.82l-.12-.06h-8.7zM64.69 4.79l7.93-.28h-7.91zM93.66 4.31v-.07h-7.94v.07zM96 4.23l.1.09h6.11v-.09zM139.16 3.37h-5.46v.12zM77.18 1.82a7.09 7.09 0 00-3.25.31h3.26c0-.13 0-.21-.01-.31zM52.74 3.25a6.43 6.43 0 00-3.84 0zM326.84 1h-.35.35zM434 .65c.68 0 1.35-.12 2-.2l-11.34.19-.12.22-3.74.14c3.49-.12 7-.27 10.46-.39.92.01 1.85.08 2.74.04zM449.76.13l-6.13-.06v.12l6.08.07zM429.53 0h.09l-8.27.08a.83.83 0 00-.28.06h1.8c2.22-.08 4.57.12 6.66-.14zM441.63.14l-4.69.27 4.75.05zM343.34 1.48a8.18 8.18 0 011.15-.34h-5.44v.07l-1.61.29zM336.08 1.5h.58c-1.5-.13-3-.31-4.5-.38h-5.32a4.52 4.52 0 001.19.3c2.68 0 5.37.07 8.05.08zM348.06 1.19h-.05H348.23l.47-.05h-1.25l.42.06zM347.87 1.2l-4.31.28h11.37l-2.48-.13c-1.4-.07-2.81-.1-4.22-.14h-.22zM362.46 1.54h.65a2 2 0 01.28-.35h-2.57c.57 0 1.15.11 1.84.18a1.06 1.06 0 01-.2.17zM386.36 1.84a7.47 7.47 0 011.64-.33H382.86c.87.16 1.84.11 2.75.21a2.09 2.09 0 01.56.14h.2zM374.59 1.71a1.77 1.77 0 000-.23l6.85.08a1.13 1.13 0 00-.24-.08c-3.65 0-7.31-.11-11-.18l-2.59.11-.06.13.72.07zM455.24 3.18l8.87-.27v-.24l-8.79.23c-.05.1-.06.19-.08.28zM403.85 1.87h-2.08.12l-2.06.36a53.87 53.87 0 005.78-.08l3.14-.07h3.18c4.69-.07 9.4-.08 14.09-.16 3.58-.06 7.13-.28 10.7-.39 4.54-.15 9.08-.29 13.63-.36 3.58-.06 7.19.11 10.74-.25 1.46-.15 3-.09 4.54-.13l-.05-.28-11.07.1a18.77 18.77 0 01-1.92.15c-4.14-.43-8.17.32-12.29.08a2 2 0 00-.49 0c-2.51.47-5.21-.08-7.84.36-1.6.27-3.59-.06-5.52.22a19.21 19.21 0 01-3.8 0c-3.74.08-7.25.15-10.74.27-1.34.05-2.67.13-4 .21s-2.71-.05-4.06-.03zM239.85 2.7c2.56-.3 5-.08 7.49-.21 1.3-.07 2.61-.11 3.91-.16 0-.09-.05-.18-.07-.27l-19.09.35v.33a69.18 69.18 0 007.76-.04zM321.62 1.39h2.61a13.62 13.62 0 002.26-.39h-8.13l6.16.07c-.93.34-2.12-.07-2.9.32z"/><path class="cls-1" d="M312.34 1.31c2.81 0 5.61.06 8.42.07-1.22-.38-2.76-.16-4.05-.38h-3a16.28 16.28 0 01-2.88.19c.5.06 1.01.12 1.51.12zM404.66 1.58h-2.41 2.49zM405.36 1.35h3.31l-16-.14c1.17.09 2.34.17 3.52.24zM274.14 3.36l-8.45.15v.1l8.46-.16zM216 3c-2.61-.33-2.61-.33-4.33.53 1.26.08 1.26.08 4.33-.53zM303.33 1a15.35 15.35 0 00-1.76.24l5.32-.09a32.61 32.61 0 00-3.56-.15zM13.65 2.61l7.63-.28a25 25 0 00-7.63.28zM475.17 6.56l3.26-.06c0-.11 0-.21-.05-.32a7 7 0 00-3.21.38zM4.33 4.24c6.21 0 12.41-.09 19.12-.15l-2.07-.63c2.69-.12 3.63-.13 5.74-.22a1.09 1.09 0 01-.05-.17c-5.87.17-10.57.25-16.53.43-.69-.65-2.31-.43-3.62-.38s-3.21-.4-4 .49l-2-.53c.92 1.13.93 1.17 3.41 1.16z"/></g></g></svg>