<svg xmlns="http://www.w3.org/2000/svg" viewBox="0 0 478.43 70.55"><g data-name="Layer 2"><path d="M478.43 70.55v-51a11.57 11.57 0 00-4.72-9.6c-5.86-4.13-16.38-5.76-25.51-4.61-12 1.5-21.66 11.21-36.42 10.55-21.42-1-29.5-14.2-50.23-15.74-23-1.71-30 13.13-44.65 13.76-12.76.55-15.2-4.47-31.88-5s-20.49 10.66-37.5 10.66c-18.07 0-20.5-10.9-33.09-10.9-13.16 0-16.12 5.68-28.31 7.84-12.75 2.25-22.79-5.53-35.08-5.53-14.62 0-18.07 6.49-35.88 4.68C103.14 14.38 97.61 5 81.49 5.21c-15.21.22-19.68 10.49-36 12.21-14.35 1.52-21.26-6.71-34.42-5.09C2.31 13.42 0 17.84 0 19.54v51z" fill="#ffffff" data-name="Ñëîé 1"/></g></svg>