<svg xmlns="http://www.w3.org/2000/svg" viewBox="0 0 478.43 54.67"><defs><style>.cls-1{fill:#ffffff}</style></defs><g id="Layer_2" data-name="Layer 2"><g id="Ñëîé_1" data-name="Ñëîé 1"><path class="cls-1" d="M478.43 54.67V6.27h-5.58c.11-.46.86-1 3.81-1.74-1.43-.37-7.17-.83-6.68-1.45-1 .65-3.57 1-7.13 1-.41-.7 3.47-.36 2.49-.52h-.73a3.24 3.24 0 012.21-.64 36 36 0 00-10.94-.4 16 16 0 00-4.33 1c-1.74-.2-1.16-.15.08-.89 1.24.26 3.13-.5 4-.79a65.93 65.93 0 00-6.92-.21c-2.19.21-4.28.54-6.35-.1-2.07-.11-4.11.51-6.18 0-2.07.37-4.18-.5-6.38 0-2.21-.93-4.51 0-7 0-.16 1.24-1.22.79-2.9 1.65l-1.07-.45c.54.22-1.15 1.09 1.28 1.33C413 3 411.8 5.67 407 6.24l.31-.66c-4 .14-5.18.16-8.64.52-6.47-1.18 5.63-.22 3.81-1.79l-1.82.27a12.31 12.31 0 014.2-2.15c-6.14 1.07-8.86-.36-15.53.48.77-.73 6.78-1.32 8.42-1.41-2.26-.06-6.3.48-6.51-.18l-.43.91c-4 .13.5-.84-.82-1.41-9.44.18-1.16 2.92-9.09 3.49-.82-1.4-3.73.25-6.43-.11 2.55-.23 1.88-1 1.54-1.45-3.1 1.83-3.88-.34-9.71.06-.15-.59 2.67-.7 3-1.35-3.2.47-8.11.74-8.8 1.76-5.45 0-9.33-.29-12.61-.11 3.93-.43.7-1 3.56-1.91-4 1.21-12.85 2.68-18.65 4.15-.74-1.11-1-1.22-.32-2.24-6.58-.71-1.87 1-8.11.75l2.88.18a4.43 4.43 0 00-3.64 2.23c-1.06-.25-2.36.19-2.59-.69-1.83.27-3.2.47-4.07-.16 1.49-.68 3.8 0 4.5-1l-2.74.41c-1.79-.5.62-1.31-1-1.22-2.27 1.4-7.95-.5-10.51-.28l.92-.13-4-.64v-.07a1.17 1.17 0 00-.17.26 19.3 19.3 0 00-7.83-1c-1.22.8-10.36.32-11.85 1a14.76 14.76 0 014.27 0l-.24 1c-3.09 0-.22-.89-3.16-.3.56 1.29 4.27 0 6.44.12a12.83 12.83 0 01-3.2.7c4.34 0 8.51.45 11.46-.86 1.25.27.68.81-.24 1 3.13-.77 2.32.72 5 0-.88 1.2-6.47.66-9.15 1.36-4-.93-9.25 0-13.71.21-.21-.89 2.91-1.66 1.13-2.16-4.41-.56-4.39.5-6.86 1-3.15-.29-.37-1.47-5.36-1.49l2.94-.59c-2.9-1.24-2.72.51-4.91.26.73.32.74.64 3.23.6.27.45-1.63.65-2.54.71h.59c-1 .62-1.34 1.27-4.5 1 1.95-.75-2.5-.54-3.3-.88l.81-.16c-2.28.26-4.66.16-6.11.31l.11-.18c-1.72.31-2.34 1.23-4.86 1 .25-.37 3.21-1.39.44-1.22.37-.55 3.45-.62 6-.43-2.51-.19-3.81-1.09-.73-1.16-.86-.71-2.89.31-4.53 0 .3.21-.21.45-.08.67-.12-1-6 0-6.09.62l3-.55c.25.77-3.5 1.29-2.28 1.71-1.46-1.19-8 .64-9.59-.37l1.11.62c-4.57-.25-8.55.45-12.83 1H223a6.58 6.58 0 013.48-.93c-3.85-.33-.61-1.27-2.28-1.85-4.61-.47-2.35 1.23-3.76 1.65l3.2-.25c-4.07 1.54-11.93-.27-18.26.71-.49-.39 1.29-.23 2.15-.39-2.88-.77-2.77.18-4.48.49-3-.11-6.53-.44-4.73-1.41-3.26-.22.36.58-1.36.89l-.62-.2-3.4 1.1c-2.82-.29-6.26-.81-7.55-1.71-4.64.16-3.84 1.18-4.66 1.91h-2.86a4.17 4.17 0 001.25-.44l-4.25.14c1.49-1.08 4.93-.57 4.62-1.81-3.49 1.23-4.79.33-9.49 1.19l.3.11c-2.09.86-7 .3-9.77.47 1.11-.52 4.18-.6 6.21-.8a45 45 0 00-12.23.75 14.46 14.46 0 00-3.41.21c-1.56-.22-2.86-.52-1.07-.85-3.9-.09-4 .54-4.75 1a10.46 10.46 0 00-3.2-.16l.07-.35c-3.94-.77-7.75 0-11.51.26-1.42-.74-2.83-.07-4.23 0L126 6c-.44 0-.87-.1-1.31-.18l-.08.27c-1 .06-1.91.14-2.86.18a2.28 2.28 0 00-.72-.13 2.52 2.52 0 01-.9-.31l2.87-.36c-2.45-.86-2.83.84-5.84.25 0 .17.81.46 1.5.75a2.72 2.72 0 01-1.53-.2 17.93 17.93 0 01-4.14 0c1.11-.38 3.08-.66 4.12-1.07-3.63-.8-1.79 1-5 .09.75-.35 1.28-.89 2-1.18a10.66 10.66 0 00-3.61 1.31c-2.34.1-1.65-.35-1.83-.64-2.59.47-2.6 1.61-6.58 1.36-2.58-.67 1.47-1.08-2.89-.77 2.2 1.22-4.42-.18-6.09.61-2.66-.18-4.55-.7-4.8-1.13a3.77 3.77 0 01-2.21 1.26 6.19 6.19 0 00-2-.11l-4.85-.41c-1.17-1.09 2.88-.36 4.75-.86-5.16-.2-3.51.15-7.38.85a27.4 27.4 0 00-5.17.78l-.54-.06a2.25 2.25 0 00.24-.08c-3.51.15-1.9-1.11-5.35-.49.41.15.91.34 1.47.51-1.39 0-2.77.08-4.13 0-1.22.37-2.43-1.47-3.63 0-1.2.15-2.38-.2-3.55 0a5 5 0 00-2-.07c-.65-.25-1.29.51-1.93.07s-1.28.29-1.91.19c-.63 1.38-1.25 1-1.87-.19a.91.91 0 00-1.13-.48c1-.76 4.64-.89 1.29-1.44l-2.82.83c-.5-.39-5.05-.38-4.85-1.22a19.49 19.49 0 00-3.14.73 4.51 4.51 0 00-3.69-.14c6.82.54 4.79.75 10.68 1-.12.18-.86.15-1.59.13l3.48.35h-.06a3.49 3.49 0 01-1.82.42c-1.2-.75-2.38-.19-3.54-.22-1.16.24-2.3-.44-3.41.08-1.12-.89-2.22-.07-3.29-.08l-.16.28c-.29-.32 1.17-.74 1.39-1.07-3.57-.32-3.7 1-6.83.59 4.78-.73-1.76-.51-3.35-1 .95.82 2.75 1.38 6.35 1.6l.37-.55c1.77 0 1.08.27 2 .5-1 1.57-2 .27-3 .58s-2-.73-3-.92c-1-.36-2 1.27-2.89.2a8.92 8.92 0 00-2.75-.2c-1.79.08-3.48.7-5.08 0S14.37 5 13 6.27c-1.4.22-2.68 1.28-3.86 0-1.18 1.14-2.26-.9-3.22 0-1 0-1.81.53-2.54 0a1.39 1.39 0 00-1.85 0H0v48.4zM374 4.27c.41.7-2.6 1-3.9 1.49-1.64.09-2.81.11-3-.48-2.9.18-3.14.59-3 1-1.1 0-2.2.13-3.3.19 1.05-.37 2.08-.72-.95-.76l-1.27.71a8.46 8.46 0 01-1-.15h-.12c.24-.25.19-.49-.31-.71 3.21-2.63 11.41-.18 16.85-1.29zm-24.1-.55l7.4.28a6 6 0 01-1.88 1.75 7.49 7.49 0 00-4.92.53 10.78 10.78 0 01-4.62.73c1.86-.25 3.89-.57 4.54-1.11l-3.88.25c2.59-1 7.64-1.39 3.34-2.43zM330.53 6c0 .12-.15.21-.35.28h-3zm-43.37.28H287l.95-.06a6.5 6.5 0 00-.79.05zm-5.57.06c-1.22 0-2.44.06-3.66 0a32 32 0 013.66-.01zm-8.08-.73c1.26.27 2.59.84 1.21 1 .6-.08 1.09-.12 1.59-.17-2 1-4 .56-6 .07 1.69-.21 2.92-.51 3.2-.91zm-33 .6v.07h-.34c.14-.04.28-.05.36-.08zm-132.27.18a1.29 1.29 0 00-.16.09 8.42 8.42 0 01-3.23.2 18.68 18.68 0 013.41-.3zm-9.35.49a17.47 17.47 0 01-2.69-.32c.81 0 1.64 0 2.55.07l-.43.08c.21.06.4.11.59.16zm-4.68-.29a3 3 0 01-2.74.26 25 25 0 012.76-.27zm-5.54-.73l1.23.73a6.55 6.55 0 01-3.33-.31l-.2-.07zm-15.52.4a9.58 9.58 0 01-1.6.12c.59-.07 1.13-.11 1.62-.13z"/><path class="cls-1" d="M262.88 4.24a14 14 0 002.58-.5zm-10.35-1.85a2.91 2.91 0 00.63.21 1.63 1.63 0 00-.63-.21zM391.2 1.32l.2-.41c-.19.18-.24.31-.2.41zM269.28 4.27h-.13c-.57.02-.35.03.13 0zm-42.81 1.07c.38 0 .81.07 1.34.09-.51-.06-.95-.08-1.34-.09zM268.59 3a5.54 5.54 0 00-1.52-.38 6.07 6.07 0 001.52.38zM470 3.08l.19-.12a.44.44 0 00-.19.12zM288.3 4.24c-1 0-2 0-3 .07a18.13 18.13 0 003-.07zM304 2.51a1.33 1.33 0 01.34-.33c-.29.08-.42.19-.34.33zm1.86-1.26c.47.4-.72.42-1.48.93 1.21-.29 4.33-.31 1.48-.93zM4.81 5.68l-1.22-.42C3 5.52.56 5.81 1.18 6zm9.59-.74c-3.81 0-2.09.87-5.9.91l3.56.33zm6.52 1.44l1.73-.64a4.8 4.8 0 01-1.6.13L22.41 5l-4.62.68 1.79.16c.03.28 1.17.4 1.34.54zM63.17 5c-1.91 0-4.25.12-3.32-.69-3.08.07-4.74.85-3.21 1.39zm9.41.02l-.69.45 2.9-.36-2.21-.09zm15.74-.13a.51.51 0 00.07-.28.2.2 0 00-.07.28zm25.8-.74c.38-.07.71-.14 1.2-.21a2.77 2.77 0 00-1.2.21zm-26.27-.41l-.38.55 1.3-.24-.92-.31zm28.76-.03l1.11-.53-.86.16c-.73-.03-.98.34-.25.37zm6.52.43l-2.95-.11 1.84.64 1.11-.53zm71.79.12c-2.39-.38-2.15.38-2.52.94 3.68.14.06-.66 2.52-.94zM241.89 3c-2.7-.48-5.1.28-7.75.27a25.89 25.89 0 007.75-.27zM261.76.32c-.65.25-1.57.38-.12.47l-2.54 1.39c3.9.43 2.8-1.28 2.66-1.86zM284.45 0l-3.66.54h1.9a13.06 13.06 0 01-3 1.26c2.76-.27 5.31-.8 4.76-1.8zm-8.01 2.11l1.35-.11a1.12 1.12 0 00-1.35.11zm2.81-.11l.48-.16c-.65.08-1.32.14-1.94.19a1.93 1.93 0 001.46-.03zm11.9-1.77c-.5.84-3-.48-3.93.43l6.35-.18zm41.63 1.45c-1.78-.5 3.32-.95-1.49-1.16-1.94.75-7.84.87-10.73.68l.68.82c4.07.16 9.07-1.65 11.54-.34zM336.42 3c1.44.09 3-.29 2.21-.63-1.15 1.08-1.59-.68-3.08 0-.65.22.33.38.87.63zM357.48.91c-3-.48-5.48.82-3.24 1.25-1.18 0-2.82.11-1.11.31 3.54-.06 2.59-.99 4.35-1.56zm24.23 1.13l-1.14 1.09 2.14-.93-1-.16zM406.55.8l-4 .13 1.33.57 2.67-.7zm3.68.52c-1.71-.2-1.1.32-2.28.34l3.53-.07zm7.35-.02l-3.2.47 4.19-.31a1.63 1.63 0 01-.99-.16zM475 5.55c-.77.72 2.43.25 3.42.4.19-.18-1.94-1.09-3.42-.4z"/></g></g></svg>